<mxfile host="app.diagrams.net" modified="2023-06-07T07:58:26.969Z" agent="Mozilla/5.0 (Macintosh; Intel Mac OS X 10_15_7) AppleWebKit/605.1.15 (KHTML, like Gecko) Version/16.4 Safari/605.1.15" etag="V_YXTbP6eZ01uSa5mjk6" version="21.3.7">
  <diagram name="Seite-1" id="n-zzxeImCiMwwyzZX6F9">
    <mxGraphModel dx="1026" dy="614" grid="1" gridSize="10" guides="1" tooltips="1" connect="1" arrows="1" fold="1" page="1" pageScale="1" pageWidth="827" pageHeight="1169" math="0" shadow="0">
      <root>
        <mxCell id="0" />
        <mxCell id="1" parent="0" />
        <mxCell id="4hPN_xKUDlY_Exep0QY8-1" value="transaction span" style="rounded=1;whiteSpace=wrap;html=1;fillColor=#dae8fc;strokeColor=#6c8ebf;" vertex="1" parent="1">
          <mxGeometry x="40" y="10" width="780" height="40" as="geometry" />
        </mxCell>
        <mxCell id="4hPN_xKUDlY_Exep0QY8-2" value="preHandle span" style="rounded=1;whiteSpace=wrap;html=1;fillColor=#dae8fc;strokeColor=#6c8ebf;" vertex="1" parent="1">
          <mxGeometry x="80" y="90" width="280" height="40" as="geometry" />
        </mxCell>
        <mxCell id="4hPN_xKUDlY_Exep0QY8-3" value="preHandle span" style="rounded=1;whiteSpace=wrap;html=1;fillColor=#dae8fc;strokeColor=#6c8ebf;" vertex="1" parent="1">
          <mxGeometry x="80" y="170" width="200" height="40" as="geometry" />
        </mxCell>
        <mxCell id="4hPN_xKUDlY_Exep0QY8-4" value="handle span" style="rounded=1;whiteSpace=wrap;html=1;fillColor=#dae8fc;strokeColor=#6c8ebf;" vertex="1" parent="1">
          <mxGeometry x="440" y="90" width="320" height="40" as="geometry" />
        </mxCell>
        <mxCell id="4hPN_xKUDlY_Exep0QY8-5" value="" style="endArrow=open;html=1;rounded=0;endFill=0;entryX=0;entryY=0.5;entryDx=0;entryDy=0;exitX=0.026;exitY=1.037;exitDx=0;exitDy=0;exitPerimeter=0;" edge="1" parent="1" source="4hPN_xKUDlY_Exep0QY8-1" target="4hPN_xKUDlY_Exep0QY8-2">
          <mxGeometry width="50" height="50" relative="1" as="geometry">
            <mxPoint x="50" y="60" as="sourcePoint" />
            <mxPoint x="50" y="60" as="targetPoint" />
            <Array as="points">
              <mxPoint x="60" y="110" />
            </Array>
          </mxGeometry>
        </mxCell>
        <mxCell id="4hPN_xKUDlY_Exep0QY8-6" value="" style="endArrow=open;html=1;rounded=0;endFill=0;entryX=0;entryY=0.5;entryDx=0;entryDy=0;exitX=0.026;exitY=1.037;exitDx=0;exitDy=0;exitPerimeter=0;" edge="1" parent="1" target="4hPN_xKUDlY_Exep0QY8-3">
          <mxGeometry width="50" height="50" relative="1" as="geometry">
            <mxPoint x="60" y="100" as="sourcePoint" />
            <mxPoint x="80" y="159" as="targetPoint" />
            <Array as="points">
              <mxPoint x="60" y="190" />
            </Array>
          </mxGeometry>
        </mxCell>
        <mxCell id="4hPN_xKUDlY_Exep0QY8-7" value="" style="endArrow=open;html=1;rounded=0;endFill=0;entryX=0;entryY=0.5;entryDx=0;entryDy=0;exitX=0.026;exitY=1.037;exitDx=0;exitDy=0;exitPerimeter=0;" edge="1" parent="1">
          <mxGeometry width="50" height="50" relative="1" as="geometry">
            <mxPoint x="420" y="50" as="sourcePoint" />
            <mxPoint x="440" y="109" as="targetPoint" />
            <Array as="points">
              <mxPoint x="420" y="109" />
            </Array>
          </mxGeometry>
        </mxCell>
      </root>
    </mxGraphModel>
  </diagram>
</mxfile>
